<?xml version="1.0" encoding="UTF-8"?>
<svg id="Layer_1" data-name="Layer 1" xmlns="http://www.w3.org/2000/svg" viewBox="0 0 1080 1080">
  <defs>
    <style>
      .cls-1, .cls-2 {
        fill: #fff;
      }

      .cls-3 {
        letter-spacing: 0em;
      }

      .cls-4 {
        letter-spacing: 0em;
      }

      .cls-5 {
        letter-spacing: 0em;
      }

      .cls-2 {
        font-family: Montserrat-Bold, Montserrat;
        font-size: 24.75px;
        font-weight: 700;
      }

      .cls-6 {
        letter-spacing: 0em;
      }

      .cls-7 {
        letter-spacing: 0em;
      }

      .cls-8 {
        letter-spacing: -.01em;
      }

      .cls-9 {
        fill: #12264b;
      }

      .cls-10 {
        letter-spacing: -.03em;
      }
    </style>
  </defs>
  <rect class="cls-9" y="0" width="1080" height="1080"/>
  <g>
    <text class="cls-2" transform="translate(394.43 606.05)"><tspan x="0" y="0">HEIZUNG | </tspan><tspan class="cls-4" x="141.55" y="0">L</tspan><tspan x="156.27" y="0">Ü</tspan><tspan class="cls-5" x="175.77" y="0">F</tspan><tspan class="cls-8" x="191.71" y="0">T</tspan><tspan x="206.71" y="0">UNG | SANI</tspan><tspan class="cls-10" x="349.79" y="0">T</tspan><tspan x="364.22" y="0">ÄR | </tspan><tspan class="cls-6" x="423.01" y="0">P</tspan><tspan class="cls-7" x="440.88" y="0">L</tspan><tspan class="cls-3" x="455.93" y="0">ANUNG</tspan></text>
    <g>
      <path class="cls-1" d="m318.94,598.21c3.33-9.02,5.44-18.8,6.13-28.95,1.73-25.62-9.6-46.84-26.71-61.74-12.44-10.84-27.58-18.75-51.43-19.38h-121.91v-42.13h115.89c42.94,0,67.54,16.75,84.26,42.13,9.74,14.76,15.4,32.44,15.4,51.44,0,22.2-7.65,43.78-21.64,58.63Z"/>
      <rect class="cls-1" x="166.61" y="499.49" width="45.75" height="134.5"/>
      <path class="cls-1" d="m313.95,566.74c0,9.19-1.8,17.95-5.07,25.97-.21.52-.43,1.03-.65,1.55-10.62,24.32-32.23,39.73-65.43,39.73h-19.2v-41.28h17.89c5.01,0,14.35-.46,19.24-1.51,18.49-3.98,28.8-13.58,33.91-27.55,5.95-16.29,4.18-33.94-.13-43.09,12.75,12.48,19.45,26.93,19.45,46.18Z"/>
    </g>
    <g>
      <path class="cls-1" d="m394.39,575.97v-93.69h40.95c10.17,0,19.09,1.96,26.77,5.89,7.67,3.93,13.65,9.37,17.93,16.33,4.28,6.96,6.42,15.17,6.42,24.63s-2.14,17.56-6.42,24.56c-4.28,7.01-10.26,12.47-17.93,16.4-7.67,3.93-16.6,5.89-26.77,5.89h-40.95Zm17.4-14.72h22.75c7.05,0,13.14-1.34,18.27-4.02,5.13-2.68,9.1-6.42,11.91-11.24,2.81-4.82,4.21-10.44,4.21-16.86s-1.4-12.16-4.21-16.93c-2.81-4.77-6.78-8.5-11.91-11.18-5.13-2.68-11.22-4.02-18.27-4.02h-22.75v64.24Z"/>
      <path class="cls-1" d="m518.83,561.86h41.34v14.11h-58.81v-75.96h57.4v14.11h-39.93v47.74Zm-1.3-31.25h36.57v13.67h-36.57v-13.67Z"/>
      <path class="cls-1" d="m599.13,577.27c-6.08,0-11.9-.81-17.47-2.44-5.57-1.63-10.06-3.74-13.46-6.35l5.97-13.24c3.25,2.32,7.11,4.21,11.56,5.7,4.45,1.48,8.95,2.22,13.51,2.22,3.47,0,6.28-.34,8.41-1.03,2.13-.69,3.71-1.64,4.72-2.88,1.01-1.23,1.52-2.64,1.52-4.23,0-2.02-.8-3.64-2.39-4.83-1.59-1.19-3.69-2.17-6.29-2.93-2.6-.76-5.48-1.48-8.63-2.17-3.15-.69-6.29-1.54-9.44-2.55-3.15-1.01-6.02-2.31-8.63-3.91-2.6-1.59-4.72-3.69-6.35-6.29-1.63-2.6-2.44-5.93-2.44-9.98,0-4.34,1.17-8.3,3.53-11.88,2.35-3.58,5.9-6.44,10.63-8.57,4.74-2.13,10.69-3.2,17.85-3.2,4.77,0,9.48.56,14.11,1.68,4.63,1.12,8.72,2.8,12.26,5.05l-5.43,13.35c-3.54-2.02-7.09-3.53-10.63-4.5-3.55-.98-7.02-1.46-10.42-1.46s-6.19.4-8.36,1.19c-2.17.8-3.73,1.83-4.67,3.09-.94,1.27-1.41,2.73-1.41,4.4,0,1.95.8,3.53,2.39,4.72,1.59,1.19,3.69,2.15,6.29,2.88,2.6.72,5.48,1.45,8.63,2.17,3.15.72,6.29,1.56,9.44,2.5,3.15.94,6.02,2.21,8.63,3.8,2.6,1.59,4.72,3.69,6.35,6.29s2.44,5.9,2.44,9.87c0,4.27-1.19,8.18-3.58,11.72-2.39,3.54-5.95,6.4-10.69,8.57-4.74,2.17-10.73,3.25-17.96,3.25Z"/>
      <path class="cls-1" d="m665.98,575.97v-78.96h-31.05v-14.72h79.5v14.72h-31.05v78.96h-17.4Z"/>
      <path class="cls-1" d="m741.44,561.86h41.34v14.11h-58.81v-75.96h57.4v14.11h-39.93v47.74Zm-1.3-31.25h36.57v13.67h-36.57v-13.67Z"/>
      <path class="cls-1" d="m833.13,577.27c-5.86,0-11.3-.96-16.33-2.88-5.03-1.92-9.39-4.65-13.08-8.19-3.69-3.54-6.57-7.71-8.63-12.48s-3.09-10.02-3.09-15.73,1.03-10.96,3.09-15.73,4.95-8.93,8.68-12.48c3.73-3.54,8.08-6.27,13.08-8.19,4.99-1.92,10.45-2.88,16.38-2.88,6.58,0,12.53,1.14,17.85,3.42,5.32,2.28,9.78,5.63,13.4,10.04l-11.29,10.42c-2.6-2.97-5.5-5.19-8.68-6.67-3.18-1.48-6.66-2.22-10.42-2.22-3.54,0-6.8.58-9.77,1.74-2.97,1.16-5.53,2.82-7.7,4.99-2.17,2.17-3.85,4.74-5.05,7.7-1.19,2.97-1.79,6.26-1.79,9.87s.6,6.91,1.79,9.87c1.19,2.97,2.88,5.53,5.05,7.7,2.17,2.17,4.74,3.84,7.7,4.99,2.96,1.16,6.22,1.74,9.77,1.74,3.76,0,7.23-.74,10.42-2.22,3.18-1.48,6.08-3.74,8.68-6.78l11.29,10.42c-3.62,4.41-8.08,7.78-13.4,10.09-5.32,2.31-11.3,3.47-17.96,3.47Z"/>
      <path class="cls-1" d="m893.89,575.97h-17.58v-75.96h17.58v75.96Zm35.81-31.14h-37.11v-14.87h37.11v14.87Zm-1.3-44.81h17.58v75.96h-17.58v-75.96Z"/>
    </g>
  </g>
</svg>