<?xml version="1.0" encoding="UTF-8"?>
<svg id="Layer_1" data-name="Layer 1" xmlns="http://www.w3.org/2000/svg" viewBox="0 0 1080 1080">
  <defs>
    <style>
      .cls-1 {
        fill: #fff;
      }

      .cls-2 {
        fill: #12264b;
      }
    </style>
  </defs>
  <rect class="cls-2" width="1080" height="1080"/>
  <g>
    <g>
      <path class="cls-1" d="m640.45,511.95c3.99-10.83,6.53-22.56,7.35-34.75,2.07-30.75-11.53-56.21-32.05-74.09-14.93-13-33.09-22.5-61.71-23.25h-146.3v-50.55h139.08c51.53,0,81.05,20.1,101.12,50.55,11.69,17.72,18.48,38.93,18.48,61.73,0,26.64-9.18,52.54-25.96,70.36Z"/>
      <rect class="cls-1" x="457.65" y="393.48" width="54.9" height="161.4"/>
      <path class="cls-1" d="m634.47,474.18c0,11.02-2.16,21.55-6.09,31.16-.25.62-.52,1.24-.78,1.86-12.74,29.18-38.68,47.68-78.52,47.68h-23.05v-49.53h21.46c6.01,0,17.22-.55,23.09-1.82,22.19-4.78,34.57-16.3,40.69-33.06,7.15-19.54,5.02-40.73-.16-51.71,15.3,14.98,23.34,32.31,23.34,55.42Z"/>
    </g>
    <g>
      <path class="cls-1" d="m250.81,743.64h-4.29v-18.55h4.29v18.55Zm8.75-7.61h-9.06v-3.63h9.06v3.63Zm-.32-10.94h4.29v18.55h-4.29v-18.55Z"/>
      <path class="cls-1" d="m272.2,740.2h10.1v3.45h-14.36v-18.55h14.02v3.45h-9.75v11.66Zm-.32-7.63h8.93v3.34h-8.93v-3.34Z"/>
      <path class="cls-1" d="m285.71,743.64v-18.55h4.29v18.55h-4.29Z"/>
      <path class="cls-1" d="m293.21,743.64v-2.78l11.47-13.83.53,1.56h-11.79v-3.5h15.61v2.78l-11.45,13.83-.53-1.56h12.38v3.5h-16.22Z"/>
      <path class="cls-1" d="m320.42,743.96c-2.63,0-4.69-.73-6.17-2.2-1.48-1.47-2.23-3.56-2.23-6.28v-10.39h4.29v10.23c0,1.77.36,3.04,1.09,3.82.72.78,1.74,1.17,3.05,1.17s2.32-.39,3.05-1.17,1.09-2.05,1.09-3.82v-10.23h4.24v10.39c0,2.72-.74,4.81-2.23,6.28-1.48,1.47-3.54,2.2-6.17,2.2Z"/>
      <path class="cls-1" d="m333.06,743.64v-18.55h3.55l10.94,13.36h-1.72v-13.36h4.24v18.55h-3.52l-10.97-13.36h1.72v13.36h-4.24Z"/>
      <path class="cls-1" d="m363.43,743.96c-1.47,0-2.81-.23-4.04-.7-1.23-.47-2.3-1.14-3.21-2-.91-.87-1.62-1.88-2.12-3.05-.5-1.17-.76-2.45-.76-3.84s.25-2.68.76-3.84c.5-1.17,1.21-2.18,2.13-3.05.92-.87,2-1.53,3.23-2,1.24-.47,2.6-.7,4.08-.7,1.64,0,3.12.27,4.44.82,1.32.55,2.42,1.34,3.33,2.38l-2.76,2.54c-.67-.71-1.4-1.23-2.2-1.58-.79-.34-1.66-.52-2.6-.52s-1.72.14-2.46.42c-.74.28-1.38.69-1.92,1.22-.54.53-.95,1.16-1.25,1.88-.29.72-.44,1.53-.44,2.41s.15,1.66.44,2.38c.29.72.71,1.36,1.25,1.89.54.54,1.17.95,1.91,1.23s1.54.42,2.42.42,1.67-.14,2.48-.41c.8-.27,1.59-.74,2.35-1.39l2.44,3.1c-1.01.76-2.18,1.34-3.51,1.75-1.33.41-2.66.61-3.99.61Zm3.58-2.92v-6.97h3.92v7.53l-3.92-.56Z"/>
      <path class="cls-1" d="m382.41,748.79v-24.8h3.79v24.8h-3.79Z"/>
      <path class="cls-1" d="m398.09,743.64v-18.55h4.29v15.05h9.3v3.5h-13.59Z"/>
      <path class="cls-1" d="m422.1,743.96c-2.63,0-4.69-.73-6.17-2.2-1.48-1.47-2.23-3.56-2.23-6.28v-10.39h4.29v10.23c0,1.77.36,3.04,1.09,3.82.72.78,1.74,1.17,3.05,1.17s2.32-.39,3.05-1.17,1.09-2.05,1.09-3.82v-10.23h4.24v10.39c0,2.72-.74,4.81-2.23,6.28-1.48,1.47-3.54,2.2-6.17,2.2Zm-2.65-20.51c-.51,0-.95-.17-1.31-.5-.36-.33-.54-.78-.54-1.32s.18-.99.54-1.33c.36-.34.8-.5,1.31-.5s.94.17,1.3.5.53.78.53,1.33-.18.99-.53,1.32c-.35.34-.79.5-1.3.5Zm5.35,0c-.51,0-.95-.17-1.3-.5-.35-.33-.53-.78-.53-1.32s.18-.99.53-1.33c.35-.34.79-.5,1.3-.5s.95.17,1.31.5.54.78.54,1.33-.18.99-.54,1.32c-.36.34-.8.5-1.31.5Z"/>
      <path class="cls-1" d="m439.03,743.64h-4.29v-18.55h14.02v3.45h-9.73v15.1Zm-.32-10.2h8.9v3.44h-8.9v-3.44Z"/>
      <path class="cls-1" d="m455.65,743.64v-15.05h-5.94v-3.5h16.16v3.5h-5.94v15.05h-4.29Z"/>
      <path class="cls-1" d="m476.11,743.96c-2.63,0-4.69-.73-6.17-2.2-1.48-1.47-2.23-3.56-2.23-6.28v-10.39h4.29v10.23c0,1.77.36,3.04,1.09,3.82.72.78,1.74,1.17,3.05,1.17s2.32-.39,3.05-1.17,1.09-2.05,1.09-3.82v-10.23h4.24v10.39c0,2.72-.74,4.81-2.23,6.28-1.48,1.47-3.54,2.2-6.17,2.2Z"/>
      <path class="cls-1" d="m488.75,743.64v-18.55h3.55l10.94,13.36h-1.72v-13.36h4.24v18.55h-3.52l-10.97-13.36h1.72v13.36h-4.24Z"/>
      <path class="cls-1" d="m519.11,743.96c-1.47,0-2.81-.23-4.04-.7-1.23-.47-2.3-1.14-3.21-2-.91-.87-1.62-1.88-2.12-3.05-.5-1.17-.76-2.45-.76-3.84s.25-2.68.76-3.84c.5-1.17,1.21-2.18,2.13-3.05.92-.87,2-1.53,3.23-2,1.24-.47,2.6-.7,4.08-.7,1.64,0,3.12.27,4.44.82,1.32.55,2.42,1.34,3.33,2.38l-2.76,2.54c-.67-.71-1.4-1.23-2.2-1.58-.79-.34-1.66-.52-2.6-.52s-1.72.14-2.46.42c-.74.28-1.38.69-1.92,1.22-.54.53-.95,1.16-1.25,1.88-.29.72-.44,1.53-.44,2.41s.15,1.66.44,2.38c.29.72.71,1.36,1.25,1.89.54.54,1.17.95,1.91,1.23s1.54.42,2.42.42,1.67-.14,2.48-.41c.8-.27,1.59-.74,2.35-1.39l2.44,3.1c-1.01.76-2.18,1.34-3.51,1.75-1.33.41-2.66.61-3.99.61Zm3.58-2.92v-6.97h3.92v7.53l-3.92-.56Z"/>
      <path class="cls-1" d="m538.09,748.79v-24.8h3.79v24.8h-3.79Z"/>
      <path class="cls-1" d="m559.87,743.96c-1.48,0-2.91-.2-4.27-.6-1.36-.4-2.46-.91-3.29-1.55l1.46-3.23c.79.57,1.74,1.03,2.82,1.39,1.09.36,2.19.54,3.3.54.85,0,1.53-.08,2.05-.25.52-.17.91-.4,1.15-.7.25-.3.37-.64.37-1.03,0-.49-.19-.89-.58-1.18-.39-.29-.9-.53-1.54-.71s-1.34-.36-2.11-.53-1.54-.38-2.31-.62c-.77-.25-1.47-.56-2.11-.95-.64-.39-1.15-.9-1.55-1.54-.4-.64-.6-1.45-.6-2.44,0-1.06.29-2.03.86-2.9.57-.88,1.44-1.57,2.6-2.09,1.16-.52,2.61-.78,4.36-.78,1.17,0,2.31.14,3.44.41,1.13.27,2.13.69,3,1.23l-1.33,3.26c-.87-.5-1.73-.86-2.6-1.1-.87-.24-1.71-.36-2.54-.36s-1.51.1-2.04.29-.91.45-1.14.75c-.23.31-.34.67-.34,1.07,0,.48.19.86.58,1.15.39.29.9.53,1.54.7.64.18,1.34.35,2.11.53.77.18,1.54.38,2.3.61.77.23,1.47.54,2.11.93.64.39,1.15.9,1.55,1.54s.6,1.44.6,2.41c0,1.04-.29,2-.88,2.86s-1.45,1.56-2.61,2.09c-1.16.53-2.62.79-4.39.79Z"/>
      <path class="cls-1" d="m568.24,743.64l8.27-18.55h4.24l8.29,18.55h-4.5l-6.78-16.38h1.7l-6.81,16.38h-4.4Zm4.13-3.97l1.14-3.26h9.54l1.17,3.26h-11.84Z"/>
      <path class="cls-1" d="m590.98,743.64v-18.55h3.55l10.94,13.36h-1.72v-13.36h4.24v18.55h-3.52l-10.97-13.36h1.72v13.36h-4.24Z"/>
      <path class="cls-1" d="m612.39,743.64v-18.55h4.29v18.55h-4.29Z"/>
      <path class="cls-1" d="m624.92,743.64v-15.05h-5.94v-3.5h16.16v3.5h-5.94v15.05h-4.29Z"/>
      <path class="cls-1" d="m634.09,743.64l8.27-18.55h4.24l8.29,18.55h-4.5l-6.78-16.38h1.7l-6.81,16.38h-4.4Zm4.13-3.97l1.14-3.26h9.54l1.17,3.26h-11.84Zm3.58-16.22c-.51,0-.95-.17-1.31-.5-.36-.33-.54-.78-.54-1.32s.18-.99.54-1.33.8-.5,1.31-.5.95.17,1.3.5c.35.34.53.78.53,1.33s-.18.99-.53,1.32c-.35.34-.79.5-1.3.5Zm5.35,0c-.51,0-.95-.17-1.3-.5-.35-.33-.53-.78-.53-1.32s.18-.99.53-1.33.79-.5,1.3-.5.95.17,1.31.5c.36.34.54.78.54,1.33s-.18.99-.54,1.32c-.36.34-.8.5-1.31.5Z"/>
      <path class="cls-1" d="m656.83,743.64v-18.55h8.03c1.66,0,3.09.27,4.29.81s2.13,1.31,2.78,2.32.98,2.21.98,3.6-.33,2.57-.98,3.56c-.65,1-1.58,1.76-2.78,2.29-1.2.53-2.63.79-4.29.79h-5.64l1.91-1.88v7.05h-4.29Zm4.29-6.57l-1.91-2.01h5.41c1.33,0,2.31-.29,2.97-.86.65-.57.98-1.36.98-2.37s-.33-1.82-.98-2.39c-.65-.56-1.64-.85-2.97-.85h-5.41l1.91-2.04v10.52Zm7.5,6.57l-4.64-6.73h4.58l4.69,6.73h-4.64Z"/>
      <path class="cls-1" d="m683.8,748.79v-24.8h3.79v24.8h-3.79Z"/>
      <path class="cls-1" d="m699.49,743.64v-18.55h8.03c1.66,0,3.09.27,4.29.81s2.13,1.31,2.78,2.32.98,2.21.98,3.6-.33,2.57-.98,3.58-1.58,1.78-2.78,2.32c-1.2.54-2.63.81-4.29.81h-5.64l1.91-1.93v7.05h-4.29Zm4.29-6.57l-1.91-2.04h5.41c1.33,0,2.31-.28,2.97-.85s.98-1.35.98-2.36-.33-1.82-.98-2.39c-.65-.56-1.64-.85-2.97-.85h-5.41l1.91-2.04v10.52Z"/>
      <path class="cls-1" d="m718.62,743.64v-18.55h4.29v15.05h9.3v3.5h-13.59Z"/>
      <path class="cls-1" d="m732.3,743.64l8.27-18.55h4.24l8.29,18.55h-4.5l-6.78-16.38h1.7l-6.81,16.38h-4.4Zm4.13-3.97l1.14-3.26h9.54l1.17,3.26h-11.84Z"/>
      <path class="cls-1" d="m755.03,743.64v-18.55h3.55l10.94,13.36h-1.72v-13.36h4.24v18.55h-3.52l-10.97-13.36h1.72v13.36h-4.24Z"/>
      <path class="cls-1" d="m784.69,743.96c-2.63,0-4.69-.73-6.17-2.2-1.48-1.47-2.23-3.56-2.23-6.28v-10.39h4.29v10.23c0,1.77.36,3.04,1.09,3.82.72.78,1.74,1.17,3.05,1.17s2.32-.39,3.05-1.17,1.09-2.05,1.09-3.82v-10.23h4.24v10.39c0,2.72-.74,4.81-2.23,6.28-1.48,1.47-3.54,2.2-6.17,2.2Z"/>
      <path class="cls-1" d="m797.33,743.64v-18.55h3.55l10.94,13.36h-1.72v-13.36h4.24v18.55h-3.52l-10.97-13.36h1.72v13.36h-4.24Z"/>
      <path class="cls-1" d="m827.7,743.96c-1.47,0-2.81-.23-4.04-.7-1.23-.47-2.3-1.14-3.21-2-.91-.87-1.62-1.88-2.12-3.05-.5-1.17-.76-2.45-.76-3.84s.25-2.68.76-3.84c.5-1.17,1.21-2.18,2.13-3.05.92-.87,2-1.53,3.23-2,1.24-.47,2.6-.7,4.08-.7,1.64,0,3.12.27,4.44.82,1.32.55,2.42,1.34,3.33,2.38l-2.76,2.54c-.67-.71-1.4-1.23-2.2-1.58-.79-.34-1.66-.52-2.6-.52s-1.72.14-2.46.42c-.74.28-1.38.69-1.92,1.22-.54.53-.95,1.16-1.25,1.88-.29.72-.44,1.53-.44,2.41s.15,1.66.44,2.38c.29.72.71,1.36,1.25,1.89.54.54,1.17.95,1.91,1.23s1.54.42,2.42.42,1.67-.14,2.48-.41c.8-.27,1.59-.74,2.35-1.39l2.44,3.1c-1.01.76-2.18,1.34-3.51,1.75-1.33.41-2.66.61-3.99.61Zm3.58-2.92v-6.97h3.92v7.53l-3.92-.56Z"/>
    </g>
    <g>
      <path class="cls-1" d="m249.18,705.37v-99.43h43.47c10.8,0,20.26,2.08,28.41,6.25,8.14,4.17,14.49,9.94,19.03,17.33,4.55,7.39,6.82,16.1,6.82,26.14s-2.27,18.63-6.82,26.07c-4.54,7.44-10.89,13.24-19.03,17.4-8.15,4.17-17.61,6.25-28.41,6.25h-43.47Zm18.47-15.62h24.15c7.48,0,13.94-1.42,19.39-4.26,5.44-2.84,9.66-6.82,12.64-11.93,2.98-5.11,4.47-11.08,4.47-17.9s-1.49-12.9-4.47-17.97c-2.98-5.06-7.2-9.02-12.64-11.86-5.45-2.84-11.91-4.26-19.39-4.26h-24.15v68.18Z"/>
      <path class="cls-1" d="m381.26,690.4h43.88v14.97h-62.42v-80.62h60.92v14.97h-42.38v50.67Zm-1.38-33.17h38.81v14.51h-38.81v-14.51Z"/>
      <path class="cls-1" d="m466.48,706.75c-6.45,0-12.63-.86-18.54-2.59-5.91-1.73-10.67-3.97-14.28-6.74l6.33-14.05c3.46,2.46,7.54,4.47,12.27,6.05,4.72,1.58,9.5,2.36,14.34,2.36,3.69,0,6.66-.36,8.92-1.09,2.26-.73,3.93-1.75,5.01-3.05,1.07-1.3,1.61-2.8,1.61-4.49,0-2.15-.85-3.86-2.53-5.12-1.69-1.27-3.92-2.3-6.68-3.11-2.76-.81-5.82-1.57-9.16-2.3-3.34-.73-6.68-1.63-10.02-2.71-3.34-1.07-6.39-2.46-9.16-4.15-2.76-1.69-5.01-3.92-6.74-6.68-1.73-2.76-2.59-6.29-2.59-10.6,0-4.61,1.25-8.81,3.74-12.61,2.49-3.8,6.26-6.83,11.29-9.1,5.03-2.26,11.34-3.4,18.95-3.4,5.07,0,10.06.6,14.97,1.79,4.91,1.19,9.25,2.98,13.01,5.36l-5.76,14.17c-3.76-2.15-7.53-3.74-11.29-4.78-3.76-1.04-7.45-1.56-11.06-1.56s-6.56.42-8.87,1.27c-2.3.85-3.96,1.94-4.95,3.28-1,1.34-1.5,2.9-1.5,4.66,0,2.07.84,3.74,2.53,5.01,1.69,1.27,3.92,2.29,6.68,3.05,2.76.77,5.82,1.54,9.16,2.3,3.34.77,6.68,1.65,10.02,2.65,3.34,1,6.39,2.34,9.16,4.03,2.76,1.69,5.01,3.92,6.74,6.68s2.59,6.26,2.59,10.48c0,4.53-1.27,8.68-3.8,12.44-2.53,3.76-6.32,6.79-11.34,9.1-5.03,2.3-11.38,3.46-19.06,3.46Z"/>
      <path class="cls-1" d="m537.43,705.37v-83.81h-32.96v-15.63h84.38v15.63h-32.96v83.81h-18.47Z"/>
      <path class="cls-1" d="m617.52,690.4h43.88v14.97h-62.42v-80.62h60.92v14.97h-42.38v50.67Zm-1.38-33.17h38.81v14.51h-38.81v-14.51Z"/>
      <path class="cls-1" d="m714.84,706.75c-6.22,0-12-1.02-17.33-3.05-5.34-2.03-9.96-4.93-13.88-8.7-3.92-3.76-6.97-8.18-9.16-13.24-2.19-5.07-3.28-10.63-3.28-16.7s1.09-11.63,3.28-16.7c2.19-5.07,5.26-9.48,9.21-13.25,3.95-3.76,8.58-6.66,13.88-8.7,5.3-2.03,11.09-3.05,17.39-3.05,6.99,0,13.3,1.21,18.94,3.63,5.64,2.42,10.38,5.97,14.22,10.65l-11.98,11.06c-2.76-3.15-5.84-5.51-9.21-7.08-3.38-1.57-7.07-2.36-11.06-2.36-3.76,0-7.22.62-10.37,1.84-3.15,1.23-5.87,2.99-8.18,5.3-2.3,2.3-4.09,5.03-5.36,8.18-1.27,3.15-1.9,6.64-1.9,10.48s.63,7.33,1.9,10.48c1.27,3.15,3.05,5.87,5.36,8.18,2.3,2.3,5.03,4.07,8.18,5.3,3.15,1.23,6.6,1.84,10.37,1.84,3.99,0,7.68-.79,11.06-2.36,3.38-1.57,6.45-3.97,9.21-7.2l11.98,11.06c-3.84,4.68-8.58,8.25-14.22,10.71-5.64,2.46-12,3.69-19.06,3.69Z"/>
      <path class="cls-1" d="m779.33,705.37h-18.66v-80.62h18.66v80.62Zm38.01-33.05h-39.39v-15.78h39.39v15.78Zm-1.38-47.56h18.66v80.62h-18.66v-80.62Z"/>
    </g>
  </g>
</svg>