<?xml version="1.0" encoding="UTF-8"?>
<svg id="Layer_1" data-name="Layer 1" xmlns="http://www.w3.org/2000/svg" viewBox="0 0 1080 1080">
  <defs>
    <style>
      .cls-1 {
        fill: #fff;
      }

      .cls-2 {
        fill: #12264b;
      }
    </style>
  </defs>
  <rect class="cls-2" y="0" width="1080" height="1080"/>
  <g>
    <g>
      <path class="cls-1" d="m305.38,587.78c2.94-7.97,4.81-16.6,5.41-25.57,1.52-22.63-8.48-41.37-23.59-54.53-10.99-9.57-24.36-16.56-45.42-17.11h-107.67v-37.21h102.36c37.93,0,59.65,14.79,74.42,37.21,8.6,13.04,13.6,28.65,13.6,45.43,0,19.6-6.75,38.67-19.11,51.78Z"/>
      <rect class="cls-1" x="170.84" y="500.58" width="40.41" height="118.79"/>
      <path class="cls-1" d="m300.98,559.98c0,8.11-1.59,15.86-4.48,22.94-.19.46-.38.91-.58,1.37-9.38,21.48-28.47,35.09-57.79,35.09h-16.96v-36.46h15.8c4.42,0,12.67-.41,17-1.34,16.33-3.52,25.44-12,29.95-24.33,5.26-14.38,3.69-29.97-.11-38.06,11.26,11.02,17.18,23.78,17.18,40.79Z"/>
    </g>
    <g>
      <path class="cls-1" d="m374.78,590.51v-95.44h41.72c10.36,0,19.45,2,27.27,6,7.82,4,13.91,9.54,18.27,16.63,4.36,7.09,6.54,15.45,6.54,25.09s-2.18,17.88-6.54,25.02c-4.36,7.14-10.45,12.7-18.27,16.7-7.82,4-16.91,6-27.27,6h-41.72Zm17.73-15h23.18c7.18,0,13.38-1.36,18.61-4.09,5.23-2.73,9.27-6.54,12.13-11.45,2.86-4.91,4.29-10.63,4.29-17.18s-1.43-12.38-4.29-17.25c-2.86-4.86-6.91-8.66-12.13-11.38-5.23-2.73-11.43-4.09-18.61-4.09h-23.18v65.45Z"/>
      <path class="cls-1" d="m501.56,576.14h42.12v14.37h-59.92v-77.38h58.48v14.37h-40.68v48.64Zm-1.33-31.84h37.25v13.93h-37.25v-13.93Z"/>
      <path class="cls-1" d="m583.36,591.84c-6.19,0-12.12-.83-17.8-2.49-5.68-1.66-10.24-3.81-13.71-6.47l6.08-13.49c3.32,2.36,7.24,4.29,11.77,5.8,4.53,1.51,9.12,2.27,13.76,2.27,3.54,0,6.39-.35,8.57-1.05,2.17-.7,3.78-1.67,4.81-2.93,1.03-1.25,1.55-2.69,1.55-4.31,0-2.06-.81-3.7-2.43-4.92-1.62-1.22-3.76-2.21-6.41-2.98s-5.58-1.51-8.79-2.21c-3.21-.7-6.41-1.56-9.62-2.6-3.21-1.03-6.14-2.36-8.79-3.98-2.65-1.62-4.81-3.76-6.47-6.41s-2.49-6.04-2.49-10.17c0-4.42,1.2-8.46,3.59-12.1,2.39-3.65,6.01-6.56,10.83-8.73,4.83-2.17,10.89-3.26,18.18-3.26,4.86,0,9.65.57,14.37,1.71,4.71,1.14,8.88,2.86,12.49,5.14l-5.53,13.6c-3.61-2.06-7.22-3.59-10.83-4.59-3.61-1-7.15-1.49-10.61-1.49s-6.3.41-8.51,1.22c-2.21.81-3.8,1.86-4.75,3.15-.96,1.29-1.44,2.78-1.44,4.48,0,1.99.81,3.59,2.43,4.81,1.62,1.22,3.76,2.19,6.41,2.93,2.65.74,5.58,1.48,8.79,2.21,3.21.74,6.41,1.59,9.62,2.54,3.21.96,6.13,2.25,8.79,3.87,2.65,1.62,4.81,3.76,6.47,6.41,1.66,2.65,2.49,6.01,2.49,10.06,0,4.35-1.22,8.33-3.65,11.94-2.43,3.61-6.06,6.52-10.89,8.73-4.83,2.21-10.93,3.32-18.29,3.32Z"/>
      <path class="cls-1" d="m651.47,590.51v-80.44h-31.63v-15h80.99v15h-31.63v80.44h-17.73Z"/>
      <path class="cls-1" d="m728.34,576.14h42.12v14.37h-59.92v-77.38h58.48v14.37h-40.68v48.64Zm-1.33-31.84h37.25v13.93h-37.25v-13.93Z"/>
      <path class="cls-1" d="m821.75,591.84c-5.97,0-11.52-.98-16.64-2.93-5.12-1.95-9.56-4.73-13.32-8.35-3.76-3.61-6.69-7.85-8.79-12.71-2.1-4.86-3.15-10.21-3.15-16.03s1.05-11.16,3.15-16.03,5.05-9.1,8.84-12.71c3.79-3.61,8.24-6.39,13.32-8.35,5.08-1.95,10.65-2.93,16.69-2.93,6.71,0,12.77,1.16,18.18,3.48,5.42,2.32,9.97,5.73,13.65,10.23l-11.5,10.61c-2.65-3.02-5.6-5.29-8.84-6.8-3.24-1.51-6.78-2.27-10.61-2.27-3.61,0-6.93.59-9.95,1.77-3.02,1.18-5.64,2.87-7.85,5.08s-3.92,4.83-5.14,7.85c-1.22,3.02-1.82,6.38-1.82,10.06s.61,7.04,1.82,10.06c1.22,3.02,2.93,5.64,5.14,7.85s4.83,3.91,7.85,5.08c3.02,1.18,6.34,1.77,9.95,1.77,3.83,0,7.37-.75,10.61-2.27,3.24-1.51,6.19-3.81,8.84-6.91l11.5,10.61c-3.69,4.5-8.24,7.92-13.65,10.28-5.42,2.36-11.52,3.54-18.29,3.54Z"/>
      <path class="cls-1" d="m883.66,590.51h-17.91v-77.38h17.91v77.38Zm36.48-31.73h-37.81v-15.14h37.81v15.14Zm-1.33-45.65h17.91v77.38h-17.91v-77.38Z"/>
    </g>
  </g>
</svg>