<?xml version="1.0" encoding="utf-8"?>
<!-- Generator: Adobe Illustrator 26.0.1, SVG Export Plug-In . SVG Version: 6.00 Build 0)  -->
<svg version="1.1" id="Layer_1" xmlns="http://www.w3.org/2000/svg" xmlns:xlink="http://www.w3.org/1999/xlink" x="0px" y="0px"
	 viewBox="0 0 1080 1080" style="enable-background:new 0 0 1080 1080;" xml:space="preserve">
<style type="text/css">
	.st0{fill:url(#SVGID_1_);}
	.st1{fill:url(#SVGID_00000006669008788134315740000000510166280672776086_);}
	.st2{fill:url(#SVGID_00000040576914779894037840000000494069183078414497_);}
	.st3{fill:#04244B;}
	.st4{fill:#FFFFFF;}
	.st5{fill:url(#SVGID_00000003069676932818467130000011605861522941207442_);}
	.st6{fill:url(#SVGID_00000137105102639108872580000002741059264305079475_);}
	.st7{fill:url(#SVGID_00000004527341311995018680000000836940110402229914_);}
	.st8{clip-path:url(#SVGID_00000087394790012588064460000013314504491714459277_);}
	.st9{fill:url(#SVGID_00000120549687085042483330000007032501135964216735_);}
	.st10{fill:url(#SVGID_00000143595432627444155750000000827473248797354122_);}
	.st11{fill:url(#SVGID_00000020379730259513138980000008488274647816387259_);}
	.st12{clip-path:url(#SVGID_00000103225197370596081950000015922705692628993424_);}
	.st13{fill:url(#SVGID_00000116935241649825031540000012215588961997906054_);}
	.st14{fill:url(#SVGID_00000026134641318145127130000005147088965251294091_);}
	.st15{fill:url(#SVGID_00000165952460822704536050000016139244945554280368_);}
	.st16{fill:url(#SVGID_00000111899820904861175350000003644603453224973499_);}
	.st17{fill:url(#SVGID_00000152245249173817192040000011322638607353304736_);}
	.st18{fill:url(#SVGID_00000049201979625651486570000006878357752766529421_);}
</style>
<g>
	<g>
		<path class="st4" d="M305.38,587.78c2.94-7.97,4.81-16.6,5.41-25.57c1.52-22.63-8.48-41.37-23.59-54.53
			c-10.99-9.57-24.36-16.56-45.42-17.11H134.11v-37.21h102.36c37.93,0,59.65,14.79,74.42,37.21c8.6,13.04,13.6,28.65,13.6,45.43
			C324.49,555.6,317.74,574.66,305.38,587.78z"/>
	</g>
	<g>
		<rect x="170.84" y="500.58" class="st4" width="40.41" height="118.79"/>
	</g>
	<g>
		<path class="st4" d="M300.98,559.98c0,8.11-1.59,15.86-4.48,22.94c-0.19,0.46-0.38,0.91-0.58,1.37
			c-9.38,21.48-28.47,35.09-57.79,35.09h-16.96v-36.46h15.8c4.42,0,12.67-0.41,17-1.34c16.33-3.52,25.44-12,29.95-24.33
			c5.26-14.38,3.69-29.97-0.11-38.06C295.06,530.22,300.98,542.98,300.98,559.98z"/>
	</g>
</g>
<g>
	<g>
		<path class="st4" d="M374.78,590.51v-95.44h41.72c10.36,0,19.45,2,27.27,6c7.82,4,13.91,9.54,18.27,16.63
			c4.36,7.09,6.54,15.45,6.54,25.09c0,9.54-2.18,17.88-6.54,25.02c-4.36,7.14-10.45,12.7-18.27,16.7c-7.82,4-16.91,6-27.27,6H374.78
			z M392.51,575.52h23.18c7.18,0,13.38-1.36,18.61-4.09c5.23-2.73,9.27-6.54,12.13-11.45c2.86-4.91,4.29-10.63,4.29-17.18
			c0-6.63-1.43-12.38-4.29-17.25c-2.86-4.86-6.91-8.66-12.13-11.38c-5.23-2.73-11.43-4.09-18.61-4.09h-23.18V575.52z"/>
		<path class="st4" d="M501.56,576.14h42.12v14.37h-59.92v-77.38h58.48v14.37h-40.68V576.14z M500.23,544.31h37.25v13.93h-37.25
			V544.31z"/>
		<path class="st4" d="M583.36,591.84c-6.19,0-12.12-0.83-17.8-2.49c-5.68-1.66-10.24-3.81-13.71-6.47l6.08-13.49
			c3.32,2.36,7.24,4.29,11.77,5.8c4.53,1.51,9.12,2.27,13.76,2.27c3.54,0,6.39-0.35,8.57-1.05c2.17-0.7,3.78-1.67,4.81-2.93
			c1.03-1.25,1.55-2.69,1.55-4.31c0-2.06-0.81-3.7-2.43-4.92c-1.62-1.22-3.76-2.21-6.41-2.98s-5.58-1.51-8.79-2.21
			c-3.21-0.7-6.41-1.56-9.62-2.6c-3.21-1.03-6.14-2.36-8.79-3.98c-2.65-1.62-4.81-3.76-6.47-6.41s-2.49-6.04-2.49-10.17
			c0-4.42,1.2-8.46,3.59-12.1c2.39-3.65,6.01-6.56,10.83-8.73c4.83-2.17,10.89-3.26,18.18-3.26c4.86,0,9.65,0.57,14.37,1.71
			c4.71,1.14,8.88,2.86,12.49,5.14l-5.53,13.6c-3.61-2.06-7.22-3.59-10.83-4.59c-3.61-1-7.15-1.49-10.61-1.49
			c-3.46,0-6.3,0.41-8.51,1.22c-2.21,0.81-3.8,1.86-4.75,3.15c-0.96,1.29-1.44,2.78-1.44,4.48c0,1.99,0.81,3.59,2.43,4.81
			c1.62,1.22,3.76,2.19,6.41,2.93c2.65,0.74,5.58,1.48,8.79,2.21c3.21,0.74,6.41,1.59,9.62,2.54c3.21,0.96,6.13,2.25,8.79,3.87
			c2.65,1.62,4.81,3.76,6.47,6.41c1.66,2.65,2.49,6.01,2.49,10.06c0,4.35-1.22,8.33-3.65,11.94c-2.43,3.61-6.06,6.52-10.89,8.73
			C596.83,590.73,590.73,591.84,583.36,591.84z"/>
		<path class="st4" d="M651.47,590.51v-80.44h-31.63v-15h80.99v15h-31.63v80.44H651.47z"/>
		<path class="st4" d="M728.34,576.14h42.12v14.37h-59.92v-77.38h58.48v14.37h-40.68V576.14z M727.01,544.31h37.25v13.93h-37.25
			V544.31z"/>
		<path class="st4" d="M821.75,591.84c-5.97,0-11.52-0.98-16.64-2.93c-5.12-1.95-9.56-4.73-13.32-8.35
			c-3.76-3.61-6.69-7.85-8.79-12.71c-2.1-4.86-3.15-10.21-3.15-16.03c0-5.82,1.05-11.16,3.15-16.03s5.05-9.1,8.84-12.71
			c3.79-3.61,8.24-6.39,13.32-8.35c5.08-1.95,10.65-2.93,16.69-2.93c6.71,0,12.77,1.16,18.18,3.48c5.42,2.32,9.97,5.73,13.65,10.23
			l-11.5,10.61c-2.65-3.02-5.6-5.29-8.84-6.8c-3.24-1.51-6.78-2.27-10.61-2.27c-3.61,0-6.93,0.59-9.95,1.77
			c-3.02,1.18-5.64,2.87-7.85,5.08s-3.92,4.83-5.14,7.85c-1.22,3.02-1.82,6.38-1.82,10.06c0,3.69,0.61,7.04,1.82,10.06
			c1.22,3.02,2.93,5.64,5.14,7.85s4.83,3.91,7.85,5.08c3.02,1.18,6.34,1.77,9.95,1.77c3.83,0,7.37-0.75,10.61-2.27
			c3.24-1.51,6.19-3.81,8.84-6.91l11.5,10.61c-3.69,4.5-8.24,7.92-13.65,10.28C834.63,590.66,828.53,591.84,821.75,591.84z"/>
		<path class="st4" d="M883.66,590.51h-17.91v-77.38h17.91V590.51z M920.13,558.79h-37.81v-15.14h37.81V558.79z M918.81,513.13
			h17.91v77.38h-17.91V513.13z"/>
	</g>
</g>
</svg>
