<?xml version="1.0" encoding="utf-8"?>
<!-- Generator: Adobe Illustrator 27.0.0, SVG Export Plug-In . SVG Version: 6.00 Build 0)  -->
<svg version="1.1" id="Layer_1" xmlns="http://www.w3.org/2000/svg" xmlns:xlink="http://www.w3.org/1999/xlink" x="0px" y="0px"
	 viewBox="0 0 226.77 141.73" style="enable-background:new 0 0 226.77 141.73;" xml:space="preserve">
<style type="text/css">
	.st0{fill:none;stroke:#D1D3D4;stroke-width:0.0217;stroke-miterlimit:10;}
	.st1{clip-path:url(#SVGID_00000027579874433761441130000006807863721086430613_);}
	.st2{fill:#FFFFFF;}
	.st3{clip-path:url(#SVGID_00000109707869158734601080000006821134294219818425_);}
	.st4{fill:none;stroke:#A2A2A2;stroke-width:0.0217;stroke-miterlimit:10;}
	.st5{clip-path:url(#SVGID_00000147936819456821498000000009922913097588835214_);}
	.st6{clip-path:url(#SVGID_00000057829688216122600990000011202256251602612640_);}
	.st7{fill:#004985;}
	.st8{fill-rule:evenodd;clip-rule:evenodd;fill:#FFFFFF;}
	.st9{fill:none;stroke:#A2A2A2;stroke-width:0.0339;stroke-miterlimit:10;}
	.st10{fill:none;}
	.st11{fill:none;stroke:#A2A2A2;stroke-width:0.0345;stroke-miterlimit:10;}
</style>
<g>
	<path class="st8" d="M69.48,69.36C72.43,79.8,65,89.53,54.21,89.38l0,0c-1.75-0.03-6.83-0.12-6.83-0.12l0,0l-0.03,1.48l-0.15,9.94
		l-0.07,1.43c0,0,7.59,0.43,10.74-0.15l0,0c10.81-1.97,17.88-11.19,16.93-22.13l0,0c-0.37-4.29-2-8.12-5.41-11.13l0,0
		C69.41,68.92,69.42,69.15,69.48,69.36L69.48,69.36L69.48,69.36z"/>
	<path class="st11" d="M44.72,61.3l-14.25-0.23 M29.81,102.02l14.25,0.23 M44.49,75.02l0.22-13.72"/>
	<rect x="29.81" y="61.07" class="st10" width="14.91" height="41.18"/>
	<polygon class="st8" points="29.81,102.02 44.05,102.25 44.72,61.3 30.47,61.07 29.81,102.02 	"/>
	<path class="st8" d="M16.83,45l-0.15,10.86l2.51,0.02c0,0,22.92,0.38,34.38,0.55l0,0c1.63,0.02,3.25,0.15,4.86,0.39l0,0
		c11.46,1.71,20,11.9,19.78,23.44l0,0c-0.07,3.5-0.99,6.75-2.34,10.06l0,0c0.69,0.09,0.87-0.18,1.04-0.41l0,0
		c4.84-6.24,7.13-13.31,6.09-21.16l0,0c-1.83-13.97-12.54-24.21-26.6-24.92l0,0c-12.58-0.63-39.54-0.94-39.54-0.94L16.83,45
		L16.83,45z"/>
	<path class="st2" d="M201.75,79.93v-4.48l-5.41,0v4.48h-1.94l0-10.46h1.94v4.32h5.41v-4.32h1.94v10.46H201.75L201.75,79.93z
		 M188.86,76.29h-2.41v2.24h2.41c1.13,0,1.69-0.37,1.69-1.12C190.55,76.67,189.99,76.29,188.86,76.29L188.86,76.29z M189.71,73.04
		c-0.27-0.18-0.67-0.28-1.19-0.28h-2.06v2.17h2.06c0.52,0,0.91-0.09,1.19-0.28c0.27-0.18,0.41-0.45,0.41-0.8
		C190.12,73.5,189.98,73.23,189.71,73.04L189.71,73.04z M192.06,76.25c0.26,0.36,0.4,0.8,0.4,1.33c0,0.75-0.29,1.33-0.88,1.73
		c-0.59,0.41-1.45,0.61-2.59,0.61h-4.41v-8.55h4.17c1.05,0,1.85,0.2,2.42,0.61c0.57,0.4,0.85,0.95,0.85,1.64
		c0,0.42-0.09,0.79-0.28,1.11c-0.19,0.32-0.46,0.57-0.81,0.74C191.42,75.63,191.79,75.89,192.06,76.25L192.06,76.25z M180.18,79.93
		l-0.02-5.26l-2.62,4.3h-0.85l-2.62-4.17v5.13h-1.79l0-8.55h1.61l3.24,5.35l3.2-5.35h1.62l0.01,8.55H180.18L180.18,79.93z
		 M168.74,72.21c-0.8-0.8-1.76-1.2-2.89-1.2c-0.74,0-1.39,0.15-1.97,0.46c-0.57,0.31-1.02,0.74-1.35,1.3
		c-0.32,0.56-0.49,1.2-0.49,1.91c0,0.7,0.16,1.33,0.49,1.88c0.32,0.56,0.77,1,1.35,1.32c0.57,0.32,1.22,0.48,1.95,0.48
		c0.82,0,1.53-0.18,2.15-0.54v-3.26h1.84v4.17c-0.54,0.43-1.17,0.76-1.88,0.99c-0.72,0.23-1.46,0.34-2.21,0.34
		c-1.07,0-2.03-0.23-2.89-0.7c-0.86-0.46-1.53-1.1-2.02-1.92c-0.49-0.82-0.73-1.74-0.73-2.77c0-1.03,0.24-1.95,0.73-2.77
		c0.49-0.82,1.16-1.46,2.03-1.92c0.86-0.46,1.83-0.69,2.91-0.69c0.88,0,1.67,0.14,2.39,0.43c0.72,0.29,1.32,0.71,1.81,1.27
		L168.74,72.21L168.74,72.21z M152.14,79.93v-3.56h-4.11v3.56h-1.88v-8.55h1.88v3.44h4.11v-3.44h1.88v8.55H152.14L152.14,79.93z
		 M140.97,72.84c-0.55,0-1.04,0.12-1.47,0.36c-0.43,0.24-0.77,0.57-1.02,1c-0.24,0.43-0.37,0.91-0.37,1.45
		c0,0.55,0.12,1.04,0.37,1.47c0.24,0.43,0.58,0.76,1.02,1c0.43,0.24,0.92,0.36,1.47,0.36c0.9,0,1.64-0.34,2.24-1.03l1.23,1.18
		c-0.82,0.97-1.99,1.45-3.53,1.45c-0.89,0-1.69-0.19-2.4-0.58c-0.71-0.38-1.27-0.91-1.68-1.58c-0.41-0.67-0.61-1.43-0.61-2.27
		c0-0.84,0.2-1.59,0.61-2.26c0.41-0.67,0.97-1.19,1.68-1.58c0.71-0.38,1.51-0.57,2.4-0.57c1.55,0,2.73,0.48,3.53,1.45l-1.23,1.17
		C142.6,73.18,141.86,72.84,140.97,72.84L140.97,72.84z M135.02,78.42v1.51h-6.64l0-8.55h6.47v1.53h-4.59v1.96h4.08v1.46l-4.08,0
		v2.09H135.02L135.02,78.42z M123.63,71.11v8.82h-1.94v-8.82h-3.47v-1.64l8.88,0v1.64H123.63L123.63,71.11z M114.33,72.78
		c-0.57,0-0.99,0.09-1.27,0.28c-0.28,0.18-0.42,0.43-0.42,0.73c0,0.32,0.16,0.55,0.47,0.69c0.31,0.14,0.8,0.29,1.47,0.43
		c0.66,0.15,1.19,0.3,1.6,0.44c0.41,0.14,0.76,0.38,1.06,0.71c0.3,0.33,0.45,0.78,0.45,1.34c0,0.82-0.33,1.47-0.98,1.95
		c-0.65,0.48-1.55,0.72-2.68,0.72c-0.67,0-1.33-0.09-1.97-0.27c-0.65-0.18-1.16-0.41-1.54-0.7l0.7-1.46
		c0.36,0.27,0.8,0.48,1.32,0.64c0.52,0.16,1.05,0.24,1.58,0.24c0.59,0,1.02-0.09,1.29-0.26c0.27-0.17,0.41-0.41,0.41-0.7
		c0-0.32-0.16-0.55-0.47-0.7c-0.31-0.15-0.8-0.29-1.46-0.42c-0.67-0.15-1.21-0.3-1.62-0.45c-0.41-0.15-0.77-0.39-1.07-0.73
		c-0.3-0.34-0.45-0.8-0.45-1.38c0-0.53,0.15-0.99,0.44-1.39c0.29-0.4,0.71-0.71,1.26-0.93c0.55-0.22,1.19-0.33,1.93-0.33
		c0.56,0,1.1,0.06,1.63,0.19c0.53,0.12,0.98,0.31,1.36,0.55l-0.64,1.46C116.06,73,115.26,72.78,114.33,72.78L114.33,72.78z
		 M109.43,78.42v1.51h-6.64v-8.55h6.47v1.53h-4.59v1.96h4.08v1.47h-4.08v2.09H109.43L109.43,78.42z M98.4,72.8
		c-0.31-0.54-0.76-0.96-1.35-1.26c-0.58-0.29-1.26-0.44-2.03-0.44h-2.54v7.18h2.54c0.77,0,1.44-0.15,2.03-0.44
		c0.58-0.29,1.03-0.71,1.35-1.26c0.31-0.54,0.47-1.17,0.47-1.89C98.87,73.98,98.72,73.35,98.4,72.8L98.4,72.8z M100.12,77.44
		c-0.48,0.79-1.15,1.4-2.02,1.84c-0.87,0.43-1.86,0.65-2.97,0.65h-4.57l0-10.46h4.57c1.12,0,2.11,0.22,2.97,0.65
		c0.87,0.43,1.54,1.05,2.02,1.84c0.48,0.79,0.72,1.71,0.72,2.74C100.83,75.73,100.59,76.65,100.12,77.44L100.12,77.44z"/>
</g>
</svg>
